<?xml version="1.0" standalone="no"?>
<!DOCTYPE svg PUBLIC "-//W3C//DTD SVG 20010904//EN"
 "http://www.w3.org/TR/2001/REC-SVG-20010904/DTD/svg10.dtd">
<svg version="1.0" xmlns="http://www.w3.org/2000/svg"
 width="1024.000000pt" height="1024.000000pt" viewBox="0 0 1024.000000 1024.000000"
 preserveAspectRatio="xMidYMid meet">
<metadata>
Created by potrace 1.14, written by Peter Selinger 2001-2017
</metadata>
<g transform="translate(0.000000,1024.000000) scale(0.100000,-0.100000)"
fill="#000000" stroke="none">
<path d="M0 5120 l0 -5120 5120 0 5120 0 0 5120 0 5120 -5120 0 -5120 0 0
-5120z m7323 3383 c-809 -2 -2137 -2 -2950 0 -813 1 -150 2 1472 2 1623 0
2288 -1 1478 -2z m-4465 -10 c-10 -2 -26 -2 -35 0 -10 3 -2 5 17 5 19 0 27 -2
18 -5z m6015 0 c-7 -2 -21 -2 -30 0 -10 3 -4 5 12 5 17 0 24 -2 18 -5z m-6076
-9 c-3 -3 -12 -4 -19 -1 -8 3 -5 6 6 6 11 1 17 -2 13 -5z m6120 0 c-3 -3 -12
-4 -19 -1 -8 3 -5 6 6 6 11 1 17 -2 13 -5z m-6172 -11 c-66 -17 -186 -79 -245
-127 -20 -17 -22 -18 -10 -2 33 42 210 136 255 134 l20 0 -20 -5z m6255 -9
c59 -24 45 -26 -20 -4 -30 11 -47 19 -38 20 10 0 36 -7 58 -16z m131 -67 c30
-19 61 -43 69 -53 14 -18 13 -18 -8 0 -12 11 -50 37 -85 59 -34 21 -55 37 -46
34 8 -3 40 -21 70 -40z m-6712 -124 c-65 -72 -113 -147 -141 -218 -11 -31 -23
-54 -25 -52 -7 8 37 108 70 160 32 49 133 167 144 167 3 0 -19 -26 -48 -57z
m6846 17 c21 -22 37 -40 34 -40 -3 0 -23 18 -44 40 -21 22 -37 40 -34 40 3 0
23 -18 44 -40z m102 -128 c33 -52 83 -170 83 -195 -1 -6 -14 22 -29 63 -28 77
-66 145 -105 190 -17 20 -18 22 -2 10 11 -8 35 -39 53 -68z m-7120 -204 c-3
-7 -5 -2 -5 12 0 14 2 19 5 13 2 -7 2 -19 0 -25z m7210 -40 c-3 -7 -5 -2 -5
12 0 14 2 19 5 13 2 -7 2 -19 0 -25z m-7220 0 c-3 -8 -6 -5 -6 6 -1 11 2 17 5
13 3 -3 4 -12 1 -19z m-10 -95 c-2 -16 -4 -3 -4 27 0 30 2 43 4 28 2 -16 2
-40 0 -55z m7240 0 c-2 -16 -4 -3 -4 27 0 30 2 43 4 28 2 -16 2 -40 0 -55z
m-5584 -50 c-13 -2 -35 -2 -50 0 -16 2 -5 4 22 4 28 0 40 -2 28 -4z m110 0
c-13 -2 -33 -2 -45 0 -13 2 -3 4 22 4 25 0 35 -2 23 -4z m-206 -9 c-3 -3 -12
-4 -19 -1 -8 3 -5 6 6 6 11 1 17 -2 13 -5z m276 -1 c-7 -2 -19 -2 -25 0 -7 3
-2 5 12 5 14 0 19 -2 13 -5z m-320 -10 c-7 -2 -19 -2 -25 0 -7 3 -2 5 12 5 14
0 19 -2 13 -5z m364 1 c-3 -3 -12 -4 -19 -1 -8 3 -5 6 6 6 11 1 17 -2 13 -5z
m-436 -19 c-18 -8 -36 -15 -40 -15 -13 1 45 29 59 29 8 0 0 -6 -19 -14z m522
-7 c53 -22 161 -90 172 -108 4 -6 -22 9 -57 33 -35 25 -92 56 -128 70 -36 15
-59 27 -52 27 7 0 37 -10 65 -22z m-638 -49 c-39 -22 -81 -50 -95 -62 l-25
-22 20 23 c20 24 142 102 160 102 5 0 -22 -18 -60 -41z m982 -250 c18 -30 35
-63 38 -74 4 -11 -7 4 -24 34 -37 66 -71 111 -125 172 -23 25 -14 17 19 -17
33 -34 74 -86 92 -115z m-1107 168 c0 -2 -15 -16 -32 -33 l-33 -29 29 33 c28
30 36 37 36 29z m-82 -94 c-47 -52 -127 -207 -129 -252 0 -11 -2 -12 -6 -3
-14 36 121 282 156 282 2 0 -7 -12 -21 -27z m1261 -238 c0 -11 -6 -2 -14 20
-18 50 -18 57 0 25 8 -14 14 -34 14 -45z m8 -47 c-3 -8 -6 -5 -6 6 -1 11 2 17
5 13 3 -3 4 -12 1 -19z m2456 15 c-7 -2 -21 -2 -30 0 -10 3 -4 5 12 5 17 0 24
-2 18 -5z m-3866 -25 c-3 -8 -6 -5 -6 6 -1 11 2 17 5 13 3 -3 4 -12 1 -19z
m3788 6 c-16 -9 -499 -485 -1072 -1057 l-1043 -1042 -312 312 c-172 171 -329
320 -348 332 -19 12 -30 21 -25 21 23 0 74 -47 373 -344 l312 -311 1043 1041
c573 573 1051 1047 1062 1053 11 6 25 10 30 10 6 0 -3 -7 -20 -15z m136 -5
l24 -20 -30 17 c-39 24 -40 24 -28 24 6 0 21 -9 34 -21z m-2504 -46 c-3 -10
-5 -4 -5 12 0 17 2 24 5 18 2 -7 2 -21 0 -30z m-1430 -35 c-2 -13 -4 -3 -4 22
0 25 2 35 4 23 2 -13 2 -33 0 -45z m5313 -2130 l0 -848 -2665 0 -2665 0 0 363
0 362 443 441 c406 406 480 475 494 461 2 -3 -6 -8 -19 -12 -13 -4 -222 -206
-465 -448 l-443 -442 0 -357 0 -358 2655 0 2655 0 0 842 0 843 -672 675 -673
675 678 -675 677 -675 0 -847z m-3873 2015 c-2 -21 -4 -4 -4 37 0 41 2 58 4
38 2 -21 2 -55 0 -75z m-1450 25 c-3 -7 -5 -2 -5 12 0 14 2 19 5 13 2 -7 2
-19 0 -25z m-1449 -1585 l-3 -1608 -2 1602 -3 1602 -133 4 -132 3 138 2 137 2
-2 -1607z m-315 1590 c-13 -2 -33 -2 -45 0 -13 2 -3 4 22 4 25 0 35 -2 23 -4z
m-76 -9 c-3 -3 -12 -4 -19 -1 -8 3 -5 6 6 6 11 1 17 -2 13 -5z m-87 -24 c-30
-11 -57 -19 -60 -19 -14 1 78 38 95 38 11 0 -5 -8 -35 -19z m-127 -58 c-35
-22 -73 -47 -85 -58 -21 -18 -22 -18 -8 0 16 20 129 95 145 96 6 0 -18 -17
-52 -38z m2064 -14 c-2 -13 -4 -5 -4 17 -1 22 1 32 4 23 2 -10 2 -28 0 -40z
m1430 -20 c-3 -7 -5 -2 -5 12 0 14 2 19 5 13 2 -7 2 -19 0 -25z m-1370 -168
c11 -25 37 -69 56 -98 20 -29 31 -50 26 -46 -36 22 -122 197 -133 269 -5 31
-2 26 12 -20 11 -33 28 -80 39 -105z m1344 65 c-29 -81 -97 -198 -139 -237
-33 -30 -33 -29 6 15 47 56 127 213 138 272 5 22 10 33 11 24 2 -9 -5 -43 -16
-74z m-3631 8 c-64 -69 -116 -150 -142 -220 -12 -29 -23 -52 -25 -50 -7 8 36
105 71 159 32 52 132 168 143 168 3 0 -18 -25 -47 -57z m2563 -383 c34 -22 59
-40 55 -40 -19 0 -124 77 -181 132 l-62 60 63 -56 c35 -31 92 -74 125 -96z
m-2736 68 c-3 -7 -5 -2 -5 12 0 14 2 19 5 13 2 -7 2 -19 0 -25z m3602 6 c-50
-54 -221 -155 -262 -154 -7 0 17 13 53 28 70 30 173 96 204 131 11 11 21 21
24 21 3 0 -5 -12 -19 -26z m-3612 -46 c-3 -8 -6 -5 -6 6 -1 11 2 17 5 13 3 -3
4 -12 1 -19z m-10 -95 c-2 -16 -4 -3 -4 27 0 30 2 43 4 28 2 -16 2 -40 0 -55z
m2878 6 c22 -10 29 -16 15 -13 -28 7 -80 33 -65 33 6 0 28 -9 50 -20z m78 -26
c-7 -2 -19 -2 -25 0 -7 3 -2 5 12 5 14 0 19 -2 13 -5z m384 1 c-3 -3 -12 -4
-19 -1 -8 3 -5 6 6 6 11 1 17 -2 13 -5z m-340 -10 c-3 -3 -12 -4 -19 -1 -8 3
-5 6 6 6 11 1 17 -2 13 -5z m296 -1 c-7 -2 -19 -2 -25 0 -7 3 -2 5 12 5 14 0
19 -2 13 -5z m-220 -10 c-13 -2 -33 -2 -45 0 -13 2 -3 4 22 4 25 0 35 -2 23
-4z m160 0 c-13 -2 -33 -2 -45 0 -13 2 -3 4 22 4 25 0 35 -2 23 -4z m-90 -10
c-7 -2 -19 -2 -25 0 -7 3 -2 5 12 5 14 0 19 -2 13 -5z m250 -540 c-7 -2 -21
-2 -30 0 -10 3 -4 5 12 5 17 0 24 -2 18 -5z m-1946 -1970 c-2 -16 -4 -3 -4 27
0 30 2 43 4 28 2 -16 2 -40 0 -55z m7240 0 c-2 -16 -4 -3 -4 27 0 30 2 43 4
28 2 -16 2 -40 0 -55z m-7720 -70 c-3 -10 -5 -2 -5 17 0 19 2 27 5 18 2 -10 2
-26 0 -35z m490 15 c-3 -8 -6 -5 -6 6 -1 11 2 17 5 13 3 -3 4 -12 1 -19z
m7220 -10 c-3 -7 -5 -2 -5 12 0 14 2 19 5 13 2 -7 2 -19 0 -25z m-7210 -40
c-3 -7 -5 -2 -5 12 0 14 2 19 5 13 2 -7 2 -19 0 -25z m7200 0 c-3 -8 -6 -5 -6
6 -1 11 2 17 5 13 3 -3 4 -12 1 -19z m-7690 -20 c-3 -7 -5 -2 -5 12 0 14 2 19
5 13 2 -7 2 -19 0 -25z m524 -58 c30 -71 75 -141 134 -210 l47 -55 -51 54
c-59 61 -107 133 -139 208 -20 48 -27 72 -18 62 2 -2 14 -29 27 -59z m7143 11
c-9 -23 -18 -40 -20 -38 -2 2 4 22 13 45 9 23 18 40 20 38 2 -2 -4 -22 -13
-45z m-7657 -13 c-3 -7 -5 -2 -5 12 0 14 2 19 5 13 2 -7 2 -19 0 -25z m22 -68
c0 -9 -4 -8 -9 5 -5 11 -9 27 -9 35 0 9 4 8 9 -5 5 -11 9 -27 9 -35z m7584
-20 c-15 -28 -57 -81 -91 -118 l-64 -67 57 65 c31 36 70 89 86 117 17 29 33
53 35 53 3 0 -7 -23 -23 -50z m-7480 -216 c119 -203 280 -360 486 -476 47 -26
82 -48 76 -48 -19 0 -163 88 -238 144 -122 92 -250 237 -333 379 -37 63 -94
192 -94 211 1 6 16 -25 34 -70 19 -44 50 -107 69 -140z m689 -36 c35 -22 56
-38 47 -35 -29 9 -124 74 -144 98 l-20 24 27 -24 c15 -13 55 -41 90 -63z
m6617 56 c-35 -42 -212 -134 -256 -134 -10 0 12 11 48 24 66 23 179 86 200
112 6 8 14 14 16 14 3 0 -1 -7 -8 -16z m-6489 -114 c30 -11 46 -19 35 -19 -17
0 -109 37 -95 38 3 0 30 -8 60 -19z m87 -26 c-3 -3 -12 -4 -19 -1 -8 3 -5 6 6
6 11 1 17 -2 13 -5z m6120 0 c-3 -3 -12 -4 -19 -1 -8 3 -5 6 6 6 11 1 17 -2
13 -5z m-6059 -11 c-10 -2 -26 -2 -35 0 -10 3 -2 5 17 5 19 0 27 -2 18 -5z
m6010 0 c-10 -2 -26 -2 -35 0 -10 3 -2 5 17 5 19 0 27 -2 18 -5z m-1545 -10
c-809 -2 -2137 -2 -2950 0 -813 1 -150 2 1472 2 1623 0 2288 -1 1478 -2z
m-4798 -403 c28 -10 43 -19 35 -19 -14 0 -101 36 -90 38 3 1 28 -8 55 -19z
m100 -30 c13 -5 14 -9 5 -9 -8 0 -24 4 -35 9 -13 5 -14 9 -5 9 8 0 24 -4 35
-9z m52 -16 c-3 -3 -12 -4 -19 -1 -8 3 -5 6 6 6 11 1 17 -2 13 -5z m56 -11
c-7 -2 -21 -2 -30 0 -10 3 -4 5 12 5 17 0 24 -2 18 -5z m60 -10 c-7 -2 -21 -2
-30 0 -10 3 -4 5 12 5 17 0 24 -2 18 -5z m3935 -10 c-713 -2 -1883 -2 -2600 0
-717 1 -133 2 1297 2 1430 0 2016 -1 1303 -2z m-5951 -340 c-2 -16 -4 -3 -4
27 0 30 2 43 4 28 2 -16 2 -40 0 -55z m7240 0 c-2 -16 -4 -3 -4 27 0 30 2 43
4 28 2 -16 2 -40 0 -55z m-7230 -55 c-3 -8 -6 -5 -6 6 -1 11 2 17 5 13 3 -3 4
-12 1 -19z m7217 -22 c-3 -21 -8 -35 -11 -32 -2 2 -1 20 3 40 3 21 8 35 11 32
2 -2 1 -20 -3 -40z m-7207 -28 c-3 -7 -5 -2 -5 12 0 14 2 19 5 13 2 -7 2 -19
0 -25z m32 -76 c28 -70 75 -143 141 -217 35 -38 40 -47 16 -25 -75 70 -155
194 -181 280 -12 41 2 19 24 -38z m7141 -1 c-24 -62 -79 -150 -106 -171 -16
-12 -15 -10 2 10 32 37 79 119 99 173 10 26 20 46 22 44 2 -3 -5 -28 -17 -56z
m-173 -246 c-55 -52 -152 -121 -186 -132 -9 -3 14 14 51 37 37 23 93 66 125
95 32 30 60 54 63 54 3 0 -21 -24 -53 -54z m-6681 -87 c48 -31 155 -77 181
-79 16 -1 16 -2 1 -6 -34 -9 -223 88 -258 133 -12 16 -10 15 10 -2 14 -11 44
-32 66 -46z m6439 -69 c-22 -10 -49 -18 -60 -18 -11 0 3 8 30 18 66 24 80 24
30 0z m-6208 -25 c-3 -3 -12 -4 -19 -1 -8 3 -5 6 6 6 11 1 17 -2 13 -5z m6120
0 c-3 -3 -12 -4 -19 -1 -8 3 -5 6 6 6 11 1 17 -2 13 -5z m-6059 -11 c-10 -2
-26 -2 -35 0 -10 3 -2 5 17 5 19 0 27 -2 18 -5z m6010 0 c-10 -2 -26 -2 -35 0
-10 3 -2 5 17 5 19 0 27 -2 18 -5z m-1545 -10 c-809 -2 -2137 -2 -2950 0 -813
1 -150 2 1472 2 1623 0 2288 -1 1478 -2z"/>
</g>
</svg>
